HIERARCHY
ROOT root
{
	OFFSET	0	13.1	24.9
	CHANNELS 6  Xposition Yposition Zposition Xrotation Yrotation Zrotation
	JOINT spine_1
	{
		OFFSET	0	9.99999	0
		CHANNELS 3  Xrotation Yrotation Zrotation
		JOINT spine_2
		{
			OFFSET	0	112	-10
			CHANNELS 3  Xrotation Yrotation Zrotation
			JOINT spine_3
			{
				OFFSET	0	206.5	19.3
				CHANNELS 3  Xrotation Yrotation Zrotation
				JOINT spine_4
				{
					OFFSET	0	110.4	14.6
					CHANNELS 3  Xrotation Yrotation Zrotation
					JOINT neck_1
					{
						OFFSET	0	71.8	-50.3
						CHANNELS 3  Xrotation Yrotation Zrotation
						JOINT neck_2
						{
							OFFSET	0	86.2	-25.8
							CHANNELS 3  Xrotation Yrotation Zrotation
							JOINT head_ee
							{
								OFFSET	0	179.8	-8.7
								CHANNELS 3  Xrotation Yrotation Zrotation
								End Site
								{
									OFFSET	1	0	0
								}
							}
						}
					}
					JOINT left_clavicle
					{
						OFFSET	-43.2	22.4	-70.8
						CHANNELS 3  Xrotation Yrotation Zrotation
						JOINT left_shoulder
						{
							OFFSET	-93.9	-5.79999	48.7
							CHANNELS 3  Xrotation Yrotation Zrotation
							JOINT left_elbow
							{
								OFFSET	-291.4	-30.8	15.2
								CHANNELS 3  Xrotation Yrotation Zrotation
								JOINT left_lowarm_twist
								{
									OFFSET	-110.7	-3.89999	13.6
									CHANNELS 3  Xrotation Yrotation Zrotation
									JOINT left_hand
									{
										OFFSET	-110.7	-3.89999	13.6
										CHANNELS 3  Xrotation Yrotation Zrotation
										JOINT left_ee
										{
											OFFSET	-80.8	-5.10001	12.1
											CHANNELS 3  Xrotation Yrotation Zrotation
											End Site
											{
												OFFSET	1	0	0
											}
										}
									}
								}
							}
						}
					}
					JOINT right_clavicle
					{
						OFFSET	43.2	22.4	-70.8
						CHANNELS 3  Xrotation Yrotation Zrotation
						JOINT right_shoulder
						{
							OFFSET	93.9	-5.79999	48.7
							CHANNELS 3  Xrotation Yrotation Zrotation
							JOINT right_elbow
							{
								OFFSET	291.4	-30.8	15.2
								CHANNELS 3  Xrotation Yrotation Zrotation
								JOINT right_lowarm_twist
								{
									OFFSET	110.7	-3.89999	13.6
									CHANNELS 3  Xrotation Yrotation Zrotation
									JOINT right_hand
									{
										OFFSET	110.7	-3.89999	13.6
										CHANNELS 3  Xrotation Yrotation Zrotation
										JOINT right_ee
										{
											OFFSET	80.8	-5.10001	12.1
											CHANNELS 3  Xrotation Yrotation Zrotation
											End Site
											{
												OFFSET	1	0	0
											}
										}
									}
								}
							}
						}
					}
				}
			}
		}
	}
	JOINT left_hip
	{
		OFFSET	-82.8	-127.5	0.300001
		CHANNELS 3  Xrotation Yrotation Zrotation
		JOINT left_knee
		{
			OFFSET	-28.2	-396.7	2.2
			CHANNELS 3  Xrotation Yrotation Zrotation
			JOINT left_ankle
			{
				OFFSET	-11.7	-411.3	35.4
				CHANNELS 3  Xrotation Yrotation Zrotation
				JOINT left_toes
				{
					OFFSET	0	-60	-88.6
					CHANNELS 3  Xrotation Yrotation Zrotation
					JOINT left_foot_ee
					{
						OFFSET	-22.5	-16.5	-42.2
						CHANNELS 3  Xrotation Yrotation Zrotation
						End Site
						{
							OFFSET	1	0	0
						}
					}
				}
			}
		}
	}
	JOINT right_hip
	{
		OFFSET	82.8	-127.5	0.300001
		CHANNELS 3  Xrotation Yrotation Zrotation
		JOINT right_knee
		{
			OFFSET	28.2	-396.7	2.2
			CHANNELS 3  Xrotation Yrotation Zrotation
			JOINT right_ankle
			{
				OFFSET	11.7	-411.3	35.4
				CHANNELS 3  Xrotation Yrotation Zrotation
				JOINT right_toes
				{
					OFFSET	0	-60	-88.6
					CHANNELS 3  Xrotation Yrotation Zrotation
					JOINT right_foot_ee
					{
						OFFSET	22.5	-16.5	-42.2
						CHANNELS 3  Xrotation Yrotation Zrotation
						End Site
						{
							OFFSET	1	0	0
						}
					}
				}
			}
		}
	}
}
MOTION
Frames: 6
Frame Time: 0.02
3098.37 605.366 -658.186 -24.0282 45.1734 19.6984 5.99135 0.456356 1.27581 5.99217 0.374255 1.30226 5.99968 0.23306 1.33477 5.99747 0.440921 1.28123 -5.06484 0.343081 -5.08641 -4.98028 4.45168 -5.12594 -0.0 0.0 -0.0 -2.93041 23.1511 -1.36077 -53.5411 -74.697 35.2868 0.501086 -13.9406 0.0612622 62.4174 -1.99381 -7.32636 -9.61395 24.968 -53.3321 -0.0 0.0 -0.0 10.4322 13.8099 -20.7004 -9.36305 41.1854 -58.4152 1.21593 31.0609 -0.337914 -52.5763 4.37661 -4.81081 -11.1386 -32.1565 55.631 0.0 0.0 0.0 44.4763 -19.5351 -2.24232 -4.91032 0.1708 0.734002 -4.88189 12.2587 0.723352 -1.11107 0.0 0.0 -0.0 0.0 -0.0 14.1415 2.95018 -4.02422 -28.9268 -0.0836752 -4.3915 36.932 4.74432 4.65356 -3.47859 0.0 0.0 0.0 0.0 0.0 
3080.75 606.753 -667.462 -23.8785 44.8807 20.3995 6.05022 0.372671 1.23544 6.05102 0.293308 1.25664 6.05649 0.158695 1.28062 6.05438 0.358937 1.2395 -4.65043 -0.257609 -5.62922 -4.55022 3.79068 -5.80577 -0.0 0.0 -0.0 -3.23431 21.2643 -2.16819 -55.0616 -75.2712 34.4107 0.503303 -13.9998 0.0617975 62.1829 -1.97207 -7.30557 -9.59541 24.3643 -54.1795 -0.0 0.0 -0.0 10.3306 14.05 -20.4657 -10.1098 40.1584 -59.9586 1.14735 29.6113 -0.303273 -51.7353 4.27648 -4.77057 -11.0518 -31.9155 55.222 0.0 0.0 0.0 44.0387 -20.2077 -2.33835 -7.18263 0.228404 1.07794 -3.84525 13.5255 0.569594 -0.114796 0.0 0.0 -0.0 0.0 -0.0 13.5678 3.03499 -4.62181 -31.5582 0.0187656 -4.78231 35.821 3.85985 4.5371 -2.82512 0.0 0.0 0.0 0.0 0.0 
3062.3 606.5 -672.954 -24.001 44.8189 21.0794 6.05883 0.287 1.08205 6.05945 0.217569 1.09812 6.06288 0.100261 1.11496 6.06125 0.27508 1.08514 -4.35908 -0.67823 -6.0197 -4.24689 3.34275 -6.29128 -0.0 0.0 -0.0 -3.1441 19.5888 -2.37501 -56.0192 -75.833 33.4725 0.503635 -14.0087 0.0618778 61.9795 -1.95329 -7.28747 -9.58243 23.9427 -54.7735 -0.0 0.0 -0.0 10.2677 14.3324 -20.3154 -11.2779 39.3553 -61.1134 1.08506 28.2576 -0.273137 -51.1474 4.20684 -4.74156 -10.9782 -31.7324 54.8275 0.0 0.0 0.0 43.7802 -20.667 -2.38377 -8.89834 0.262833 1.33896 -2.995 14.5262 0.44365 0.606298 -0.0 -0.0 -0.0 0.0 -0.0 12.9553 3.1478 -4.83244 -33.3938 0.100818 -5.05201 34.9969 3.23691 4.45025 -2.37037 0.0 0.0 0.0 0.0 0.0 
3039.22 613.635 -684.26 -23.9703 44.6063 21.0039 5.92242 0.09629 1.2331 5.92327 0.0176355 1.23673 5.92272 -0.116264 1.23138 5.92061 0.079653 1.23429 -4.06299 0.640342 -5.11443 -3.97118 5.08469 -5.16594 -0.0 0.0 -0.0 -2.2938 18.0217 -1.38605 -51.0013 -77.3887 38.0404 0.443826 -12.3999 0.0482147 62.388 -1.99108 -7.32375 -9.84614 24.8212 -56.2222 -0.0 0.0 -0.0 9.90343 14.714 -19.4908 -14.7642 38.4908 -61.2169 1.18528 30.4184 -0.32225 -50.7326 4.15789 -4.72067 -10.7904 -31.282 53.7902 0.0 0.0 0.0 43.2572 -20.9495 -2.40316 -12.4453 0.309149 1.88116 -0.210238 17.2152 0.031148 1.54201 -0.0 -0.0 -0.0 0.0 -0.0 14.1944 4.48494 -5.3542 -31.2344 0.00519116 -4.73447 29.3747 2.77639 3.86799 -2.89845 0.0 0.0 0.0 0.0 0.0 
3019.7 611.928 -693.87 -23.1069 44.8577 20.8467 5.89538 -0.020085 1.02743 5.89596 -0.0854186 1.02407 5.89382 -0.196227 1.00872 5.8924 -0.0344649 1.02704 -3.02985 1.55032 -4.42177 -2.94588 6.26225 -4.37949 -0.0 0.0 -0.0 -0.833935 16.1464 0.58544 -55.4659 -77.0104 33.3375 0.370904 -10.4113 0.033792 62.6277 -2.01337 -7.34491 -10.0525 26.1754 -56.0328 -0.0 0.0 -0.0 9.77985 16.2294 -19.1456 -17.7566 37.7879 -61.3614 1.21172 30.973 -0.335743 -49.9935 4.07103 -4.68256 -10.3259 -30.4004 50.839 0.0 0.0 0.0 43.0542 -21.1393 -2.28049 -14.2318 0.319746 2.15503 2.12668 19.9152 -0.316022 2.18523 -0.0 -0.0 -0.0 0.0 -0.0 13.8272 8.66712 -6.19243 -30.9933 -0.00474143 -4.6988 26.4891 2.3081 3.54299 -3.12491 0.0 0.0 0.0 0.0 0.0 
2986.13 616.248 -695.149 -23.8786 45.6479 21.3252 5.87137 -0.103486 0.749882 5.87167 -0.150992 0.741778 5.86941 -0.231033 0.720874 5.8687 -0.114288 0.748312 -1.2734 0.815808 -4.17698 -1.19958 4.81802 -4.33292 -0.0 0.0 -0.0 0.101318 16.635 2.10995 -67.3652 -78.8549 24.6781 0.337828 -9.50062 0.0280733 62.4582 -1.9976 -7.32997 -9.9459 25.0958 -56.8853 -0.0 0.0 -0.0 9.42912 20.1596 -18.1169 -19.446 35.6107 -63.003 1.129 29.2162 -0.294262 -48.6596 3.91553 -4.61097 -9.70994 -29.4953 46.7195 0.0 0.0 0.0 43.7041 -21.3519 0.518954 -15.8774 0.321948 2.40751 4.81024 21.6961 -0.714832 2.63538 -0.0 -0.0 -0.0 0.0 -0.0 13.8214 14.007 -6.92094 -33.6391 0.112435 -5.08784 26.178 -2.14221 3.4762 -2.10266 0.0 0.0 0.0 0.0 0.0 
